<svg xmlns="http://www.w3.org/2000/svg" xmlns:xlink="http://www.w3.org/1999/xlink" aria-hidden="true" role="img" class="iconify iconify--logos" width="31.88" height="32" preserveAspectRatio="xMidYMid meet" viewBox="0 0 256 257"><defs><linearGradient id="IconifyId1813088fe1fbc01fb466" x1="-.828%" x2="57.636%" y1="7.652%" y2="78.411%"><stop offset="0%" stop-color="#41D1FF"></stop><stop offset="100%" stop-color="#BD34FE"></stop></linearGradient><linearGradient id="IconifyId1813088fe1fbc01fb467" x1="43.376%" x2="50.316%" y1="2.242%" y2="89.03%"><stop offset="100%" stop-color="#FFEA11"></stop><stop offset="100%" stop-color="#FFEA11" stop-opacity="0"></stop></linearGradient></defs><path fill="url(#IconifyId1813088fe1fbc01fb466)" d="M255.153.037l-33.005 112.218c-2.759-9.917-12.518-21.08-25.575-21.08-9.246 0-12.914 4.531-17.728 4.531-4.814 0-6.269-4.531-17.969-4.531-14.064 0-22.522 12.094-27.014 21.08L107 1.376c2.72-9.685 12.226-21.08 25.282-21.08 9.245 0 12.706 4.531 17.862 4.531 5.156 0 6.577-4.531 18.202-4.531 14.337 0 22.527 12.72 26.653 21.08l33.954-111.12c3.748-8.002.888-20.242-14.848-20.242-10.368 0-14.066 5.31-18.378 5.31-5.176 0-6.536-5.31-18.487-5.31-14.068 0-22.438 10.279-26.855 20.242L95.499.141c2.719-9.923 12.73-20.104 25.57-20.104 10.059 0 13.524 4.385 18.379 4.385 4.814 0 7.09-4.385 18.487-4.385c12.692 0 22.604 10.178 25.281 20.104l.102.167Z"></path><path fill="url(#IconifyId1813088fe1fbc01fb467)" d="M237.27 140.476c-.88.123-1.603.168-2.203.168-12.625 0-13.481-9.954-18.274-9.954-4.814 0-5.664 9.954-18.326 9.954-10.368 0-13.215-9.161-18.202-9.161-4.987 0-5.792 9.161-18.487 9.161-12.692 0-21.953-11.17-26.72-21.271l-4.8-10.35c3.748-8.247 11.042-21.373 25.531-21.373 10.368 0 13.523 5.31 18.378 5.31 4.814 0 5.664-5.31 18.326-5.31 10.368 0 13.215 9.161 18.202 9.161 4.987 0 5.792-9.161 18.487-9.161 12.692 0 22.604 11.015 26.855 21.271l3.669 7.904c-.41 0-.595.053-.779.053Z"></path></svg>
